<mxfile host="Electron" modified="2024-04-18T03:26:35.137Z" agent="Mozilla/5.0 (Windows NT 10.0; Win64; x64) AppleWebKit/537.36 (KHTML, like Gecko) draw.io/21.2.8 Chrome/112.0.5615.165 Electron/24.2.0 Safari/537.36" etag="FHK8fnz7J098x_uRZL3n" version="21.2.8" type="device" pages="2">
  <diagram name="fig1" id="IM0B7LO6zEONRMX0c4RT">
    <mxGraphModel dx="714" dy="430" grid="1" gridSize="10" guides="1" tooltips="1" connect="1" arrows="1" fold="1" page="1" pageScale="1" pageWidth="827" pageHeight="583" math="1" shadow="0">
      <root>
        <mxCell id="0" />
        <mxCell id="1" parent="0" />
        <mxCell id="D91GqyZZNzykNJFRmw_x-61" value="" style="rounded=0;whiteSpace=wrap;html=1;fillColor=none;dashed=1;" parent="1" vertex="1">
          <mxGeometry x="590" y="190" width="140" height="290" as="geometry" />
        </mxCell>
        <mxCell id="D91GqyZZNzykNJFRmw_x-47" value="" style="rounded=0;whiteSpace=wrap;html=1;fillColor=none;dashed=1;" parent="1" vertex="1">
          <mxGeometry x="390" y="40" width="140" height="250" as="geometry" />
        </mxCell>
        <mxCell id="D91GqyZZNzykNJFRmw_x-46" value="" style="rounded=0;whiteSpace=wrap;html=1;fillColor=none;dashed=1;" parent="1" vertex="1">
          <mxGeometry x="190" y="190" width="140" height="290" as="geometry" />
        </mxCell>
        <mxCell id="D91GqyZZNzykNJFRmw_x-45" style="edgeStyle=orthogonalEdgeStyle;rounded=0;orthogonalLoop=1;jettySize=auto;html=1;entryX=0.5;entryY=1;entryDx=0;entryDy=0;" parent="1" source="D91GqyZZNzykNJFRmw_x-1" target="D91GqyZZNzykNJFRmw_x-4" edge="1">
          <mxGeometry relative="1" as="geometry" />
        </mxCell>
        <mxCell id="D91GqyZZNzykNJFRmw_x-1" value="&lt;b&gt;Time&lt;/b&gt;&lt;br&gt;&lt;b&gt;Encoding&lt;/b&gt;" style="rounded=0;whiteSpace=wrap;html=1;fillColor=#ffe6cc;strokeColor=#d79b00;" parent="1" vertex="1">
          <mxGeometry x="200" y="360" width="120" height="80" as="geometry" />
        </mxCell>
        <mxCell id="D91GqyZZNzykNJFRmw_x-6" style="edgeStyle=orthogonalEdgeStyle;rounded=0;orthogonalLoop=1;jettySize=auto;html=1;entryX=0;entryY=0.5;entryDx=0;entryDy=0;" parent="1" source="D91GqyZZNzykNJFRmw_x-2" target="D91GqyZZNzykNJFRmw_x-4" edge="1">
          <mxGeometry relative="1" as="geometry" />
        </mxCell>
        <mxCell id="D91GqyZZNzykNJFRmw_x-10" style="edgeStyle=orthogonalEdgeStyle;rounded=0;orthogonalLoop=1;jettySize=auto;html=1;entryX=0;entryY=0.5;entryDx=0;entryDy=0;" parent="1" source="D91GqyZZNzykNJFRmw_x-2" target="D91GqyZZNzykNJFRmw_x-9" edge="1">
          <mxGeometry relative="1" as="geometry">
            <Array as="points">
              <mxPoint x="260" y="120" />
            </Array>
          </mxGeometry>
        </mxCell>
        <mxCell id="D91GqyZZNzykNJFRmw_x-44" style="edgeStyle=orthogonalEdgeStyle;rounded=0;orthogonalLoop=1;jettySize=auto;html=1;entryX=0.5;entryY=0;entryDx=0;entryDy=0;" parent="1" source="D91GqyZZNzykNJFRmw_x-2" target="D91GqyZZNzykNJFRmw_x-1" edge="1">
          <mxGeometry relative="1" as="geometry" />
        </mxCell>
        <mxCell id="D91GqyZZNzykNJFRmw_x-2" value="&lt;b&gt;Fuzzy&lt;br&gt;Gaussian&lt;br&gt;Mixture&lt;br&gt;Model&lt;/b&gt;" style="rounded=0;whiteSpace=wrap;html=1;fillColor=#ffe6cc;strokeColor=#d79b00;" parent="1" vertex="1">
          <mxGeometry x="200" y="200" width="120" height="80" as="geometry" />
        </mxCell>
        <mxCell id="D91GqyZZNzykNJFRmw_x-40" style="edgeStyle=orthogonalEdgeStyle;rounded=0;orthogonalLoop=1;jettySize=auto;html=1;entryX=0;entryY=0.5;entryDx=0;entryDy=0;" parent="1" source="D91GqyZZNzykNJFRmw_x-4" target="D91GqyZZNzykNJFRmw_x-8" edge="1">
          <mxGeometry relative="1" as="geometry" />
        </mxCell>
        <mxCell id="D91GqyZZNzykNJFRmw_x-4" value="&lt;b&gt;Gaussian&lt;/b&gt;&lt;br style=&quot;border-color: var(--border-color);&quot;&gt;&lt;b&gt;Mixture&lt;/b&gt;&lt;br style=&quot;border-color: var(--border-color);&quot;&gt;&lt;b&gt;Regression&lt;/b&gt;" style="rounded=0;whiteSpace=wrap;html=1;fillColor=#dae8fc;strokeColor=#6c8ebf;" parent="1" vertex="1">
          <mxGeometry x="400" y="200" width="120" height="80" as="geometry" />
        </mxCell>
        <mxCell id="D91GqyZZNzykNJFRmw_x-58" style="edgeStyle=orthogonalEdgeStyle;rounded=0;orthogonalLoop=1;jettySize=auto;html=1;entryX=0.5;entryY=0;entryDx=0;entryDy=0;" parent="1" source="D91GqyZZNzykNJFRmw_x-8" target="D91GqyZZNzykNJFRmw_x-57" edge="1">
          <mxGeometry relative="1" as="geometry" />
        </mxCell>
        <mxCell id="D91GqyZZNzykNJFRmw_x-8" value="&lt;b&gt;Dynamic&lt;br&gt;Movement&lt;br&gt;Primitive&lt;/b&gt;" style="rounded=0;whiteSpace=wrap;html=1;fillColor=#d5e8d4;strokeColor=#82b366;" parent="1" vertex="1">
          <mxGeometry x="600" y="200" width="120" height="80" as="geometry" />
        </mxCell>
        <mxCell id="D91GqyZZNzykNJFRmw_x-41" style="edgeStyle=orthogonalEdgeStyle;rounded=0;orthogonalLoop=1;jettySize=auto;html=1;entryX=0.5;entryY=0;entryDx=0;entryDy=0;" parent="1" source="D91GqyZZNzykNJFRmw_x-9" target="D91GqyZZNzykNJFRmw_x-8" edge="1">
          <mxGeometry relative="1" as="geometry" />
        </mxCell>
        <mxCell id="D91GqyZZNzykNJFRmw_x-9" value="&lt;b&gt;Deviation&lt;br&gt;Analysis&lt;/b&gt;" style="rounded=0;whiteSpace=wrap;html=1;fillColor=#dae8fc;strokeColor=#6c8ebf;" parent="1" vertex="1">
          <mxGeometry x="400" y="80" width="120" height="80" as="geometry" />
        </mxCell>
        <mxCell id="D91GqyZZNzykNJFRmw_x-14" value="" style="endArrow=classic;html=1;rounded=0;exitX=0;exitY=1;exitDx=0;exitDy=0;" parent="1" source="D91GqyZZNzykNJFRmw_x-16" edge="1">
          <mxGeometry width="50" height="50" relative="1" as="geometry">
            <mxPoint x="120" y="230" as="sourcePoint" />
            <mxPoint x="200" y="230" as="targetPoint" />
          </mxGeometry>
        </mxCell>
        <mxCell id="D91GqyZZNzykNJFRmw_x-15" value="" style="endArrow=classic;html=1;rounded=0;" parent="1" edge="1">
          <mxGeometry width="50" height="50" relative="1" as="geometry">
            <mxPoint x="80" y="250" as="sourcePoint" />
            <mxPoint x="200" y="250" as="targetPoint" />
          </mxGeometry>
        </mxCell>
        <mxCell id="D91GqyZZNzykNJFRmw_x-16" value="&lt;b&gt;Image&lt;br&gt;Demonstrations&lt;br&gt;&lt;/b&gt;" style="text;html=1;strokeColor=none;fillColor=none;align=center;verticalAlign=middle;whiteSpace=wrap;rounded=0;" parent="1" vertex="1">
          <mxGeometry x="80" y="200" width="100" height="30" as="geometry" />
        </mxCell>
        <mxCell id="D91GqyZZNzykNJFRmw_x-17" value="&lt;b&gt;Priori&lt;br&gt;Trajectory&lt;/b&gt;" style="text;html=1;strokeColor=none;fillColor=none;align=center;verticalAlign=middle;whiteSpace=wrap;rounded=0;" parent="1" vertex="1">
          <mxGeometry x="100" y="250" width="60" height="30" as="geometry" />
        </mxCell>
        <mxCell id="D91GqyZZNzykNJFRmw_x-22" value="$$\mu,\Sigma$$" style="text;html=1;strokeColor=none;fillColor=none;align=center;verticalAlign=middle;whiteSpace=wrap;rounded=0;fontSize=14;" parent="1" vertex="1">
          <mxGeometry x="340" y="220" width="40" height="20" as="geometry" />
        </mxCell>
        <mxCell id="D91GqyZZNzykNJFRmw_x-24" value="$$t_i$$" style="text;html=1;strokeColor=none;fillColor=none;align=center;verticalAlign=middle;whiteSpace=wrap;rounded=0;fontSize=14;" parent="1" vertex="1">
          <mxGeometry x="350" y="380" width="20" height="20" as="geometry" />
        </mxCell>
        <mxCell id="D91GqyZZNzykNJFRmw_x-25" value="&lt;b style=&quot;border-color: var(--border-color); font-size: 14px;&quot;&gt;$$l_j(v_{2t})$$&lt;/b&gt;" style="text;html=1;strokeColor=none;fillColor=none;align=center;verticalAlign=middle;whiteSpace=wrap;rounded=0;fontSize=14;" parent="1" vertex="1">
          <mxGeometry x="210" y="145" width="40" height="30" as="geometry" />
        </mxCell>
        <mxCell id="D91GqyZZNzykNJFRmw_x-26" value="&lt;b style=&quot;border-color: var(--border-color); font-size: 14px;&quot;&gt;$$l_j(v_{1t})$$&lt;/b&gt;" style="text;html=1;strokeColor=none;fillColor=none;align=center;verticalAlign=middle;whiteSpace=wrap;rounded=0;fontSize=14;" parent="1" vertex="1">
          <mxGeometry x="210" y="305" width="40" height="30" as="geometry" />
        </mxCell>
        <mxCell id="D91GqyZZNzykNJFRmw_x-27" value="$$C,T,Q$$" style="text;html=1;strokeColor=none;fillColor=none;align=center;verticalAlign=middle;whiteSpace=wrap;rounded=0;fontSize=14;" parent="1" vertex="1">
          <mxGeometry x="340" y="240" width="40" height="20" as="geometry" />
        </mxCell>
        <mxCell id="D91GqyZZNzykNJFRmw_x-34" value="&lt;b&gt;Robot Manipulation&lt;/b&gt;" style="text;html=1;strokeColor=none;fillColor=none;align=center;verticalAlign=middle;whiteSpace=wrap;rounded=0;" parent="1" vertex="1">
          <mxGeometry x="730" y="360" width="80" height="40" as="geometry" />
        </mxCell>
        <mxCell id="D91GqyZZNzykNJFRmw_x-48" value="&lt;b&gt;&lt;i&gt;Parameter Estimation&lt;/i&gt;&lt;/b&gt;" style="text;html=1;strokeColor=none;fillColor=none;align=center;verticalAlign=middle;whiteSpace=wrap;rounded=0;" parent="1" vertex="1">
          <mxGeometry x="220" y="440" width="80" height="40" as="geometry" />
        </mxCell>
        <mxCell id="D91GqyZZNzykNJFRmw_x-49" value="&lt;i&gt;&lt;b&gt;Trajectory Generation&lt;/b&gt;&lt;br&gt;&lt;/i&gt;" style="text;html=1;strokeColor=none;fillColor=none;align=center;verticalAlign=middle;whiteSpace=wrap;rounded=0;" parent="1" vertex="1">
          <mxGeometry x="420" y="40" width="80" height="40" as="geometry" />
        </mxCell>
        <mxCell id="D91GqyZZNzykNJFRmw_x-51" value="" style="endArrow=classic;html=1;rounded=0;entryX=1;entryY=0.5;entryDx=0;entryDy=0;" parent="1" target="D91GqyZZNzykNJFRmw_x-8" edge="1">
          <mxGeometry width="50" height="50" relative="1" as="geometry">
            <mxPoint x="800" y="240" as="sourcePoint" />
            <mxPoint x="760" y="240" as="targetPoint" />
            <Array as="points">
              <mxPoint x="760" y="240" />
            </Array>
          </mxGeometry>
        </mxCell>
        <mxCell id="D91GqyZZNzykNJFRmw_x-54" value="&lt;b&gt;Environment Variable&lt;/b&gt;" style="text;html=1;strokeColor=none;fillColor=none;align=center;verticalAlign=middle;whiteSpace=wrap;rounded=0;" parent="1" vertex="1">
          <mxGeometry x="730" y="200" width="80" height="40" as="geometry" />
        </mxCell>
        <mxCell id="D91GqyZZNzykNJFRmw_x-55" value="$$\{x_t,y_t\}$$" style="text;html=1;strokeColor=none;fillColor=none;align=center;verticalAlign=middle;whiteSpace=wrap;rounded=0;fontSize=14;" parent="1" vertex="1">
          <mxGeometry x="530" y="210" width="60" height="30" as="geometry" />
        </mxCell>
        <mxCell id="D91GqyZZNzykNJFRmw_x-56" value="$$\{z_t\}$$" style="text;html=1;strokeColor=none;fillColor=none;align=center;verticalAlign=middle;whiteSpace=wrap;rounded=0;fontSize=14;" parent="1" vertex="1">
          <mxGeometry x="530" y="90" width="60" height="30" as="geometry" />
        </mxCell>
        <mxCell id="D91GqyZZNzykNJFRmw_x-60" style="edgeStyle=orthogonalEdgeStyle;rounded=0;orthogonalLoop=1;jettySize=auto;html=1;" parent="1" source="D91GqyZZNzykNJFRmw_x-57" edge="1">
          <mxGeometry relative="1" as="geometry">
            <mxPoint x="799.9999999999998" y="400" as="targetPoint" />
          </mxGeometry>
        </mxCell>
        <mxCell id="D91GqyZZNzykNJFRmw_x-57" value="&lt;b&gt;Inverse&lt;br&gt;Kinematics&lt;/b&gt;" style="rounded=0;whiteSpace=wrap;html=1;fillColor=#d5e8d4;strokeColor=#82b366;" parent="1" vertex="1">
          <mxGeometry x="600" y="360" width="120" height="80" as="geometry" />
        </mxCell>
        <mxCell id="D91GqyZZNzykNJFRmw_x-62" value="&lt;i&gt;&lt;b&gt;Skill&lt;br&gt;Learning&lt;/b&gt;&lt;br&gt;&lt;/i&gt;" style="text;html=1;strokeColor=none;fillColor=none;align=center;verticalAlign=middle;whiteSpace=wrap;rounded=0;" parent="1" vertex="1">
          <mxGeometry x="620" y="440" width="80" height="40" as="geometry" />
        </mxCell>
        <mxCell id="D91GqyZZNzykNJFRmw_x-63" value="$$\{\theta^i_t\}$$" style="text;html=1;strokeColor=none;fillColor=none;align=center;verticalAlign=middle;whiteSpace=wrap;rounded=0;fontSize=14;" parent="1" vertex="1">
          <mxGeometry x="750" y="400" width="40" height="30" as="geometry" />
        </mxCell>
        <mxCell id="D91GqyZZNzykNJFRmw_x-64" value="$$\{x^{\prime}_t,y^{\prime}&lt;br&gt;_t\}$$" style="text;html=1;strokeColor=none;fillColor=none;align=center;verticalAlign=middle;whiteSpace=wrap;rounded=0;fontSize=14;" parent="1" vertex="1">
          <mxGeometry x="600" y="306" width="60" height="28" as="geometry" />
        </mxCell>
        <mxCell id="D91GqyZZNzykNJFRmw_x-65" value="$$\{z^{\prime}&lt;br&gt;_t\}$$" style="text;html=1;strokeColor=none;fillColor=none;align=center;verticalAlign=middle;whiteSpace=wrap;rounded=0;fontSize=14;" parent="1" vertex="1">
          <mxGeometry x="660" y="305" width="40" height="30" as="geometry" />
        </mxCell>
      </root>
    </mxGraphModel>
  </diagram>
  <diagram id="o7MXlhajSptsiC3pRJ2w" name="第 2 页">
    <mxGraphModel dx="1036" dy="623" grid="1" gridSize="10" guides="1" tooltips="1" connect="1" arrows="1" fold="1" page="1" pageScale="1" pageWidth="827" pageHeight="583" math="0" shadow="0">
      <root>
        <mxCell id="0" />
        <mxCell id="1" parent="0" />
      </root>
    </mxGraphModel>
  </diagram>
</mxfile>
